<?xml version="1.0" encoding="utf-8"?>
<!-- Generator: Adobe Illustrator 16.0.0, SVG Export Plug-In . SVG Version: 6.00 Build 0)  -->
<!DOCTYPE svg PUBLIC "-//W3C//DTD SVG 1.1//EN" "http://www.w3.org/Graphics/SVG/1.1/DTD/svg11.dtd">
<svg version="1.1" id="Layer_1" xmlns="http://www.w3.org/2000/svg" xmlns:xlink="http://www.w3.org/1999/xlink" x="0px" y="0px"
	 width="132.253px" height="29.805px" viewBox="0 0 132.253 29.805" enable-background="new 0 0 132.253 29.805"
	 xml:space="preserve">
<radialGradient id="SVGID_1_" cx="14.8975" cy="14.9023" r="14.8975" gradientUnits="userSpaceOnUse">
	<stop  offset="0" style="stop-color:#FFFFFF"/>
	<stop  offset="1" style="stop-color:#D4EDF1"/>
</radialGradient>
<path fill="url(#SVGID_1_)" d="M29.795,25.328c0,2.47-2.002,4.472-4.473,4.472H4.473C2.002,29.8,0,27.798,0,25.328V4.478
	c0-2.47,2.002-4.472,4.473-4.472h20.85c2.47,0,4.473,2.002,4.473,4.472V25.328z"/>
<g>
	<linearGradient id="SVGID_2_" gradientUnits="userSpaceOnUse" x1="86.228" y1="17.0757" x2="85.861" y2="5.5754">
		<stop  offset="0" style="stop-color:#03E2E9"/>
		<stop  offset="0.5178" style="stop-color:#02C7F2"/>
		<stop  offset="0.9949" style="stop-color:#05B3FA"/>
	</linearGradient>
	<path fill="url(#SVGID_2_)" d="M92.872,9.726c0,2.004-0.596,3.591-1.789,4.76c-1.193,1.168-2.815,1.752-4.869,1.752
		c-2.233,0-3.99-0.704-5.273-2.111s-1.925-3.339-1.925-5.794c0-2.42,0.642-4.338,1.925-5.752c1.283-1.415,3.017-2.122,5.201-2.122
		c1.774,0,3.262,0.472,4.462,1.415c1.199,0.943,1.911,2.195,2.132,3.755h-3.121c-0.236-0.763-0.654-1.354-1.258-1.774
		c-0.604-0.419-1.342-0.629-2.215-0.629c-1.214,0-2.169,0.452-2.866,1.357C82.58,5.487,82.23,6.727,82.23,8.301
		c0,1.602,0.362,2.864,1.087,3.787c0.725,0.922,1.708,1.383,2.95,1.383c1.026,0,1.864-0.277,2.517-0.833
		c0.651-0.555,0.995-1.286,1.03-2.195l0.009-0.271h-3.256V7.813h6.304V9.726z"/>
	<linearGradient id="SVGID_3_" gradientUnits="userSpaceOnUse" x1="99.6362" y1="16.6475" x2="99.2692" y2="5.1469">
		<stop  offset="0" style="stop-color:#03E2E9"/>
		<stop  offset="0.5178" style="stop-color:#02C7F2"/>
		<stop  offset="0.9949" style="stop-color:#05B3FA"/>
	</linearGradient>
	<path fill="url(#SVGID_3_)" d="M103.572,14.511c-1,1.061-2.383,1.591-4.144,1.591c-1.761,0-3.143-0.53-4.145-1.591
		c-1.003-1.061-1.504-2.528-1.504-4.4c0-1.859,0.504-3.32,1.514-4.385c1.009-1.064,2.387-1.597,4.135-1.597
		c1.747,0,3.125,0.533,4.135,1.597c1.009,1.064,1.513,2.526,1.513,4.385C105.076,11.983,104.575,13.45,103.572,14.511z
		 M99.428,13.627c0.804,0,1.429-0.307,1.873-0.92c0.444-0.614,0.666-1.479,0.666-2.595c0-1.103-0.223-1.963-0.671-2.58
		c-0.447-0.617-1.069-0.926-1.867-0.926c-0.805,0-1.428,0.309-1.872,0.926s-0.667,1.477-0.667,2.58c0,1.117,0.22,1.981,0.661,2.595
		C97.991,13.32,98.617,13.627,99.428,13.627z"/>
	<linearGradient id="SVGID_4_" gradientUnits="userSpaceOnUse" x1="110.9858" y1="16.2852" x2="110.6188" y2="4.7846">
		<stop  offset="0" style="stop-color:#03E2E9"/>
		<stop  offset="0.5178" style="stop-color:#02C7F2"/>
		<stop  offset="0.9949" style="stop-color:#05B3FA"/>
	</linearGradient>
	<path fill="url(#SVGID_4_)" d="M109.448,16.03c-1.11,0-2.014-0.315-2.71-0.946c-0.697-0.631-1.045-1.467-1.045-2.507
		c0-1.034,0.383-1.847,1.15-2.439c0.765-0.593,1.862-0.931,3.291-1.015l2.777-0.166V8.021c0-0.478-0.166-0.848-0.498-1.108
		c-0.334-0.26-0.812-0.391-1.436-0.391c-1.125,0-1.814,0.354-2.071,1.062h-2.788c0.097-1.062,0.599-1.902,1.503-2.522
		c0.904-0.621,2.079-0.931,3.521-0.931c1.512,0,2.683,0.34,3.511,1.02c0.829,0.68,1.243,1.637,1.243,2.871v7.833h-2.934v-1.498
		h-0.187c-0.299,0.527-0.742,0.938-1.332,1.232C110.855,15.883,110.188,16.03,109.448,16.03z M110.445,13.752
		c0.7,0,1.287-0.197,1.759-0.592c0.471-0.396,0.707-0.885,0.707-1.468V10.85l-2.32,0.146c-1.288,0.091-1.934,0.552-1.934,1.383
		c0,0.423,0.164,0.758,0.494,1.004C109.48,13.629,109.912,13.752,110.445,13.752z"/>
	<linearGradient id="SVGID_5_" gradientUnits="userSpaceOnUse" x1="119.5122" y1="16.0132" x2="119.1452" y2="4.5124">
		<stop  offset="0" style="stop-color:#03E2E9"/>
		<stop  offset="0.5178" style="stop-color:#02C7F2"/>
		<stop  offset="0.9949" style="stop-color:#05B3FA"/>
	</linearGradient>
	<path fill="url(#SVGID_5_)" d="M117.741,15.853V0h3.027v15.853H117.741z"/>
	<linearGradient id="SVGID_6_" gradientUnits="userSpaceOnUse" x1="127.2983" y1="15.7646" x2="126.9313" y2="4.2639">
		<stop  offset="0" style="stop-color:#03E2E9"/>
		<stop  offset="0.5178" style="stop-color:#02C7F2"/>
		<stop  offset="0.9949" style="stop-color:#05B3FA"/>
	</linearGradient>
	<path fill="url(#SVGID_6_)" d="M122.413,7.75c0-1.089,0.438-1.964,1.315-2.627c0.878-0.662,2.031-0.993,3.459-0.993
		c1.456,0,2.599,0.295,3.427,0.884c0.829,0.589,1.286,1.432,1.369,2.528h-2.798c-0.077-0.375-0.286-0.668-0.629-0.879
		c-0.345-0.211-0.792-0.318-1.348-0.318c-0.548,0-0.999,0.113-1.354,0.338c-0.354,0.226-0.529,0.518-0.529,0.879
		c0,0.277,0.124,0.508,0.373,0.692c0.25,0.184,0.642,0.335,1.176,0.453l2.154,0.468c1.116,0.243,1.932,0.614,2.45,1.113
		c0.515,0.5,0.774,1.175,0.774,2.028c0,1.138-0.466,2.053-1.395,2.747s-2.149,1.04-3.661,1.04s-2.708-0.298-3.589-0.895
		c-0.881-0.596-1.373-1.445-1.477-2.548h2.954c0.242,0.818,0.967,1.228,2.174,1.228c0.589,0,1.068-0.113,1.436-0.338
		c0.367-0.226,0.551-0.522,0.551-0.89c0-0.285-0.113-0.515-0.344-0.692c-0.229-0.177-0.596-0.321-1.102-0.432l-2.081-0.468
		c-1.116-0.243-1.946-0.636-2.491-1.181C122.685,9.343,122.413,8.63,122.413,7.75z"/>
</g>
<g>
	<linearGradient id="SVGID_7_" gradientUnits="userSpaceOnUse" x1="15.4692" y1="5.7739" x2="12.4611" y2="24.7667">
		<stop  offset="0" style="stop-color:#03E2E9"/>
		<stop  offset="0.5178" style="stop-color:#02C7F2"/>
		<stop  offset="0.9949" style="stop-color:#05B3FA"/>
	</linearGradient>
	<path fill="url(#SVGID_7_)" d="M22.887,11.688h-3.094v2.209v2.619h0.029c-0.569,2.572-2.862,4.497-5.605,4.497
		c-3.172,0-5.743-2.572-5.743-5.744c0-3.172,2.571-5.743,5.743-5.743c1.2,0,2.313,0.368,3.234,0.998l2.065-3.102
		c-1.569-1.111-3.481-1.767-5.55-1.767c-5.308,0-9.613,4.304-9.613,9.614s4.305,9.614,9.613,9.614c4.886,0,8.919-3.647,9.53-8.367
		v-0.771v-4.079L22.887,11.688z"/>
	<g>
		<radialGradient id="SVGID_8_" cx="13.9248" cy="15.27" r="9.5928" gradientUnits="userSpaceOnUse">
			<stop  offset="0.4975" style="stop-color:#000000"/>
			<stop  offset="0.7005" style="stop-color:#000305;stop-opacity:0"/>
			<stop  offset="0.9289" style="stop-color:#000609;stop-opacity:0"/>
			<stop  offset="1" style="stop-color:#00070A;stop-opacity:0.9645"/>
		</radialGradient>
		<path opacity="0.15" fill="url(#SVGID_8_)" d="M22.887,11.688h-3.094v2.209v2.619h0.029c-0.569,2.572-2.862,4.497-5.605,4.497
			c-3.172,0-5.743-2.572-5.743-5.744c0-3.172,2.571-5.743,5.743-5.743c1.2,0,2.313,0.368,3.234,0.998l2.065-3.102
			c-1.569-1.111-3.481-1.767-5.55-1.767c-5.308,0-9.613,4.304-9.613,9.614s4.305,9.614,9.613,9.614c4.886,0,8.919-3.647,9.53-8.367
			v-0.771v-4.079L22.887,11.688z"/>
		<linearGradient id="SVGID_9_" gradientUnits="userSpaceOnUse" x1="21.376" y1="17.7793" x2="21.376" y2="13.9272">
			<stop  offset="0" style="stop-color:#03E2E9"/>
			<stop  offset="0.5178" style="stop-color:#02C7F2"/>
			<stop  offset="0.9949" style="stop-color:#05B3FA"/>
		</linearGradient>
		<polygon fill="url(#SVGID_9_)" points="26.16,13.927 25.313,17.779 16.592,17.779 16.608,13.927 		"/>
	</g>
</g>
<g>
	<path d="M35.951,0.843h6.262c1.546,0,2.8,0.477,3.76,1.43c0.96,0.954,1.44,2.207,1.44,3.76c0,1.54-0.495,2.785-1.487,3.734
		c-0.992,0.951-2.282,1.426-3.869,1.426h-2.965v4.66h-3.142V0.843z M39.092,3.422v5.222h2.278c0.908,0,1.611-0.224,2.107-0.671
		c0.495-0.448,0.743-1.09,0.743-1.93c0-0.846-0.246-1.495-0.738-1.945c-0.492-0.45-1.193-0.676-2.101-0.676H39.092z"/>
	<path d="M48.873,15.853V0h3.027v15.853H48.873z"/>
	<path d="M64.187,4.38v11.473h-2.934v-1.841h-0.187c-0.569,1.394-1.686,2.091-3.35,2.091c-1.241,0-2.22-0.376-2.938-1.128
		c-0.718-0.753-1.077-1.791-1.077-3.116V4.38h3.027v6.699c0,1.595,0.704,2.393,2.111,2.393c0.742,0,1.314-0.219,1.716-0.656
		c0.402-0.437,0.604-1.044,0.604-1.82V4.38H64.187z"/>
	<path d="M65.729,7.75c0-1.089,0.438-1.964,1.315-2.627c0.877-0.662,2.031-0.993,3.459-0.993c1.456,0,2.598,0.295,3.426,0.884
		c0.83,0.589,1.287,1.432,1.369,2.528H72.5c-0.077-0.375-0.286-0.668-0.629-0.879c-0.345-0.211-0.792-0.318-1.348-0.318
		c-0.548,0-0.998,0.113-1.352,0.338c-0.354,0.226-0.531,0.518-0.531,0.879c0,0.277,0.125,0.508,0.374,0.692
		c0.25,0.184,0.642,0.335,1.176,0.453l2.153,0.468c1.116,0.243,1.933,0.614,2.45,1.113c0.516,0.5,0.775,1.175,0.775,2.028
		c0,1.138-0.465,2.053-1.394,2.747c-0.93,0.693-2.15,1.04-3.662,1.04s-2.708-0.298-3.588-0.895
		c-0.881-0.596-1.374-1.445-1.477-2.548h2.954c0.243,0.818,0.967,1.228,2.174,1.228c0.589,0,1.068-0.113,1.436-0.338
		c0.367-0.226,0.55-0.522,0.55-0.89c0-0.285-0.114-0.515-0.343-0.692c-0.229-0.177-0.597-0.321-1.102-0.432l-2.081-0.468
		c-1.117-0.243-1.947-0.636-2.492-1.181C66,9.343,65.729,8.63,65.729,7.75z"/>
</g>
<g opacity="0.5">
	<g>
		<path d="M40.058,23.936c-0.148,0.279-0.385,0.506-0.711,0.681c-0.326,0.174-0.744,0.262-1.254,0.262h-1.12v2.508h-1.014v-6.18
			h2.133c0.475,0,0.876,0.082,1.205,0.245s0.575,0.384,0.738,0.663c0.163,0.279,0.245,0.59,0.245,0.934
			C40.28,23.362,40.206,23.658,40.058,23.936z M38.955,23.79c0.19-0.175,0.285-0.422,0.285-0.742c0-0.676-0.383-1.014-1.147-1.014
			h-1.12v2.018h1.12C38.478,24.052,38.765,23.964,38.955,23.79z"/>
		<path d="M44.387,20.806v6.581h-1.013v-6.581H44.387z"/>
		<path d="M52.284,22.487v4.899h-1.015v-0.578c-0.16,0.202-0.368,0.359-0.625,0.476c-0.258,0.116-0.533,0.173-0.823,0.173
			c-0.385,0-0.731-0.08-1.036-0.24c-0.305-0.16-0.545-0.396-0.72-0.711c-0.175-0.314-0.263-0.693-0.263-1.138v-2.881h1.005v2.729
			c0,0.438,0.11,0.775,0.33,1.009c0.219,0.234,0.518,0.351,0.897,0.351c0.38,0,0.681-0.117,0.903-0.351
			c0.223-0.234,0.333-0.571,0.333-1.009v-2.729H52.284z"/>
		<path d="M56.485,27.258c-0.306-0.14-0.547-0.329-0.725-0.57c-0.178-0.24-0.272-0.508-0.285-0.805h1.049
			c0.018,0.208,0.118,0.381,0.298,0.52c0.181,0.14,0.407,0.209,0.68,0.209c0.284,0,0.505-0.055,0.662-0.165s0.236-0.25,0.236-0.422
			c0-0.185-0.087-0.321-0.262-0.41s-0.453-0.187-0.832-0.293c-0.368-0.101-0.667-0.198-0.897-0.293
			c-0.232-0.095-0.432-0.24-0.601-0.436c-0.168-0.195-0.253-0.454-0.253-0.773c0-0.261,0.077-0.5,0.231-0.716
			c0.154-0.216,0.375-0.387,0.663-0.512c0.288-0.125,0.618-0.187,0.991-0.187c0.558,0,1.006,0.141,1.347,0.423
			c0.341,0.281,0.523,0.666,0.547,1.151H58.32c-0.017-0.22-0.106-0.395-0.267-0.525c-0.16-0.13-0.376-0.195-0.649-0.195
			c-0.267,0-0.472,0.05-0.613,0.151c-0.143,0.102-0.213,0.234-0.213,0.4c0,0.13,0.047,0.24,0.142,0.329
			c0.095,0.089,0.21,0.159,0.347,0.209c0.136,0.05,0.337,0.115,0.604,0.191c0.356,0.095,0.648,0.191,0.876,0.289
			c0.228,0.098,0.425,0.242,0.59,0.432c0.167,0.189,0.252,0.441,0.259,0.755c0,0.279-0.078,0.528-0.231,0.747
			c-0.154,0.22-0.372,0.392-0.654,0.516c-0.281,0.124-0.612,0.187-0.992,0.187C57.135,27.466,56.79,27.396,56.485,27.258z"/>
		<path d="M71.462,22.487l-3.005,7.202h-1.049l0.996-2.383l-1.93-4.819h1.129l1.378,3.734l1.432-3.734H71.462z"/>
		<path d="M75.223,27.151c-0.373-0.21-0.666-0.507-0.879-0.89c-0.213-0.382-0.321-0.825-0.321-1.329c0-0.498,0.11-0.939,0.329-1.325
			c0.219-0.385,0.52-0.682,0.898-0.889s0.803-0.312,1.271-0.312c0.468,0,0.892,0.104,1.271,0.312
			c0.379,0.208,0.678,0.504,0.898,0.889c0.219,0.385,0.329,0.827,0.329,1.325c0,0.498-0.112,0.94-0.338,1.325
			c-0.225,0.385-0.532,0.683-0.92,0.894c-0.388,0.21-0.817,0.315-1.285,0.315C76.015,27.466,75.597,27.361,75.223,27.151z
			 M77.211,26.399c0.228-0.125,0.414-0.312,0.556-0.56c0.142-0.249,0.212-0.551,0.212-0.907c0-0.355-0.068-0.656-0.205-0.902
			c-0.135-0.246-0.316-0.431-0.542-0.556c-0.225-0.125-0.468-0.187-0.729-0.187s-0.502,0.063-0.725,0.187
			c-0.222,0.125-0.398,0.31-0.529,0.556s-0.196,0.547-0.196,0.902c0,0.528,0.135,0.935,0.405,1.223
			c0.27,0.288,0.609,0.431,1.019,0.431C76.738,26.586,76.982,26.523,77.211,26.399z"/>
		<path d="M86.586,22.487v4.899h-1.013v-0.578c-0.16,0.202-0.37,0.359-0.627,0.476c-0.258,0.116-0.533,0.173-0.823,0.173
			c-0.385,0-0.73-0.08-1.036-0.24s-0.545-0.396-0.72-0.711c-0.174-0.314-0.263-0.693-0.263-1.138v-2.881h1.006v2.729
			c0,0.438,0.109,0.775,0.329,1.009c0.219,0.234,0.519,0.351,0.898,0.351c0.38,0,0.681-0.117,0.903-0.351
			c0.222-0.234,0.333-0.571,0.333-1.009v-2.729H86.586z"/>
		<path d="M91.651,22.616c0.246-0.14,0.538-0.209,0.875-0.209v1.049h-0.257c-0.397,0-0.697,0.101-0.902,0.303
			c-0.205,0.202-0.307,0.552-0.307,1.049v2.579h-1.014v-4.899h1.014v0.711C91.207,22.95,91.404,22.755,91.651,22.616z"/>
		<path d="M103.004,22.634c0.294,0.151,0.523,0.339,0.69,0.564v-0.711h1.021v4.979c0,0.451-0.094,0.852-0.285,1.205
			c-0.188,0.353-0.463,0.63-0.822,0.832c-0.358,0.201-0.786,0.303-1.285,0.303c-0.664,0-1.215-0.156-1.653-0.467
			c-0.439-0.312-0.688-0.734-0.748-1.268h1.005c0.078,0.255,0.242,0.462,0.494,0.618c0.252,0.158,0.553,0.236,0.902,0.236
			c0.409,0,0.74-0.125,0.992-0.374s0.378-0.611,0.378-1.085v-0.818c-0.172,0.231-0.405,0.425-0.699,0.582
			c-0.293,0.157-0.627,0.236-1,0.236c-0.426,0-0.816-0.108-1.17-0.325c-0.352-0.216-0.631-0.519-0.834-0.907
			c-0.205-0.388-0.307-0.828-0.307-1.32c0-0.492,0.103-0.928,0.307-1.307c0.204-0.379,0.483-0.674,0.834-0.885
			c0.354-0.21,0.744-0.316,1.17-0.316C102.374,22.407,102.711,22.483,103.004,22.634z M103.485,24.052
			c-0.139-0.249-0.321-0.438-0.547-0.569c-0.226-0.13-0.468-0.195-0.729-0.195c-0.261,0-0.504,0.064-0.729,0.191
			c-0.225,0.127-0.408,0.314-0.546,0.56c-0.14,0.246-0.209,0.538-0.209,0.876c0,0.337,0.069,0.634,0.209,0.889
			c0.139,0.255,0.323,0.449,0.551,0.583c0.229,0.133,0.47,0.2,0.725,0.2c0.261,0,0.503-0.065,0.729-0.195
			c0.226-0.131,0.408-0.322,0.547-0.574c0.14-0.251,0.209-0.547,0.209-0.885S103.625,24.301,103.485,24.052z"/>
		<path d="M109.046,27.151c-0.373-0.21-0.667-0.507-0.881-0.89c-0.213-0.382-0.319-0.825-0.319-1.329
			c0-0.498,0.109-0.939,0.329-1.325c0.219-0.385,0.52-0.682,0.898-0.889s0.803-0.312,1.271-0.312c0.468,0,0.892,0.104,1.271,0.312
			c0.38,0.208,0.679,0.504,0.899,0.889c0.219,0.385,0.327,0.827,0.327,1.325c0,0.498-0.112,0.94-0.336,1.325
			c-0.226,0.385-0.532,0.683-0.922,0.894c-0.388,0.21-0.816,0.315-1.284,0.315C109.837,27.466,109.42,27.361,109.046,27.151z
			 M111.034,26.399c0.229-0.125,0.414-0.312,0.556-0.56c0.143-0.249,0.213-0.551,0.213-0.907c0-0.355-0.067-0.656-0.204-0.902
			c-0.136-0.246-0.317-0.431-0.542-0.556c-0.226-0.125-0.469-0.187-0.729-0.187s-0.502,0.063-0.725,0.187
			c-0.222,0.125-0.399,0.31-0.528,0.556c-0.131,0.246-0.196,0.547-0.196,0.902c0,0.528,0.135,0.935,0.404,1.223
			s0.609,0.431,1.019,0.431C110.561,26.586,110.805,26.523,111.034,26.399z"/>
		<path d="M115.943,23.607c0.204-0.379,0.482-0.674,0.835-0.885c0.353-0.21,0.742-0.316,1.17-0.316c0.385,0,0.721,0.076,1.009,0.227
			c0.287,0.151,0.518,0.339,0.689,0.564v-0.711h1.022v4.899h-1.022v-0.729c-0.172,0.231-0.406,0.424-0.703,0.578
			c-0.297,0.154-0.635,0.231-1.014,0.231c-0.421,0-0.807-0.108-1.156-0.325c-0.35-0.216-0.626-0.519-0.83-0.907
			c-0.205-0.388-0.308-0.828-0.308-1.32C115.635,24.423,115.738,23.987,115.943,23.607z M119.436,24.052
			c-0.139-0.249-0.321-0.438-0.547-0.569c-0.225-0.13-0.468-0.195-0.729-0.195s-0.504,0.064-0.729,0.191
			c-0.225,0.127-0.407,0.314-0.547,0.56c-0.139,0.246-0.209,0.538-0.209,0.876c0,0.337,0.07,0.634,0.209,0.889
			c0.14,0.255,0.323,0.449,0.552,0.583s0.469,0.2,0.725,0.2c0.261,0,0.504-0.065,0.729-0.195c0.226-0.131,0.408-0.322,0.547-0.574
			c0.14-0.251,0.21-0.547,0.21-0.885S119.576,24.301,119.436,24.052z"/>
		<path d="M125.14,20.806v6.581h-1.014v-6.581H125.14z"/>
		<path d="M129.342,27.258c-0.307-0.14-0.548-0.329-0.726-0.57c-0.178-0.24-0.272-0.508-0.283-0.805h1.048
			c0.018,0.208,0.117,0.381,0.298,0.52c0.181,0.14,0.408,0.209,0.68,0.209c0.286,0,0.506-0.055,0.663-0.165
			c0.156-0.11,0.235-0.25,0.235-0.422c0-0.185-0.087-0.321-0.262-0.41c-0.176-0.089-0.452-0.187-0.832-0.293
			c-0.367-0.101-0.667-0.198-0.897-0.293c-0.231-0.095-0.432-0.24-0.601-0.436c-0.169-0.195-0.253-0.454-0.253-0.773
			c0-0.261,0.077-0.5,0.23-0.716c0.154-0.216,0.375-0.387,0.663-0.512c0.287-0.125,0.618-0.187,0.991-0.187
			c0.558,0,1.006,0.141,1.348,0.423c0.341,0.281,0.522,0.666,0.547,1.151h-1.014c-0.019-0.22-0.107-0.395-0.268-0.525
			c-0.16-0.13-0.376-0.195-0.649-0.195c-0.266,0-0.471,0.05-0.612,0.151c-0.144,0.102-0.214,0.234-0.214,0.4
			c0,0.13,0.047,0.24,0.142,0.329c0.096,0.089,0.211,0.159,0.348,0.209s0.337,0.115,0.604,0.191
			c0.356,0.095,0.647,0.191,0.876,0.289s0.427,0.242,0.593,0.432c0.165,0.189,0.251,0.441,0.257,0.755
			c0,0.279-0.077,0.528-0.231,0.747c-0.154,0.22-0.372,0.392-0.652,0.516c-0.282,0.124-0.612,0.187-0.992,0.187
			C129.993,27.466,129.646,27.396,129.342,27.258z"/>
	</g>
</g>
</svg>
